<mxfile host="app.diagrams.net" modified="2023-12-01T17:16:31.346Z" agent="Mozilla/5.0 (Macintosh; Intel Mac OS X 10_15_7) AppleWebKit/537.36 (KHTML, like Gecko) Chrome/119.0.0.0 Safari/537.36" version="22.1.4" etag="l-Z5A1BFkgGVy_mPwOlk" type="github">
  <diagram name="Page-1" id="Et-7MCjX74KIT7QtY2aH">
    <mxGraphModel>
      <root>
        <mxCell id="0" />
        <mxCell id="1" parent="0" />
      </root>
    </mxGraphModel>
  </diagram>
</mxfile>
